<?xml version="1.0" encoding="UTF-8" standalone="no"?>
<!-- Created with Inkscape (http://www.inkscape.org/) -->

<svg
   xmlns:dc="http://purl.org/dc/elements/1.1/"
   xmlns:cc="http://creativecommons.org/ns#"
   xmlns:rdf="http://www.w3.org/1999/02/22-rdf-syntax-ns#"
   xmlns:svg="http://www.w3.org/2000/svg"
   xmlns="http://www.w3.org/2000/svg"
   xmlns:sodipodi="http://sodipodi.sourceforge.net/DTD/sodipodi-0.dtd"
   xmlns:inkscape="http://www.inkscape.org/namespaces/inkscape"
   width="116.84918mm"
   height="30.947569mm"
   viewBox="0 0 414.03254 109.65674"
   id="svg2"
   version="1.1"
   inkscape:version="0.91 r13725"
   inkscape:export-filename="G:\EclipseMARS\workspace\repladDO\WebContent\images\logo\repladLogo001.png"
   inkscape:export-xdpi="98.357101"
   inkscape:export-ydpi="98.357101"
   sodipodi:docname="repladLogo005.svg">
  <defs
     id="defs4" />
  <sodipodi:namedview
     id="base"
     pagecolor="#ffffff"
     bordercolor="#666666"
     borderopacity="1.0"
     inkscape:pageopacity="0.0"
     inkscape:pageshadow="2"
     inkscape:zoom="0.55114104"
     inkscape:cx="353.62514"
     inkscape:cy="-404.21928"
     inkscape:document-units="px"
     inkscape:current-layer="g5856"
     showgrid="true"
     showborder="true"
     showguides="false"
     inkscape:window-width="1366"
     inkscape:window-height="716"
     inkscape:window-x="-8"
     inkscape:window-y="-8"
     inkscape:window-maximized="1"
     fit-margin-top="0"
     fit-margin-left="0"
     fit-margin-right="0"
     fit-margin-bottom="0" />
  <metadata
     id="metadata7">
    <rdf:RDF>
      <cc:Work
         rdf:about="">
        <dc:format>image/svg+xml</dc:format>
        <dc:type
           rdf:resource="http://purl.org/dc/dcmitype/StillImage" />
        <dc:title></dc:title>
      </cc:Work>
    </rdf:RDF>
  </metadata>
  <g
     inkscape:label="Layer 1"
     inkscape:groupmode="layer"
     id="layer1"
     transform="translate(-18.422108,-12.305086)">
    <path
       style="fill:#fec806;fill-opacity:1;stroke:#77b2ac;stroke-width:0.35714287;stroke-opacity:0.62745098"
       d=""
       id="path4149"
       inkscape:connector-curvature="0" />
    <path
       style="fill:#fec806;fill-opacity:1;stroke:#77b2ac;stroke-width:0.35714287;stroke-opacity:0.62745098"
       d=""
       id="path4155"
       inkscape:connector-curvature="0" />
    <g
       id="g4176"
       transform="matrix(1.104425,0,0,1.104425,695.92692,145.08744)">
      <g
         id="g5825"
         transform="matrix(1.472026,0,0,1.3960879,270.03491,-180.77682)"
         inkscape:export-xdpi="90"
         inkscape:export-ydpi="90">
        <g
           style="fill:#1a1a1a"
           transform="matrix(1.1669793,0,0,1.1669793,77.385151,-76.397987)"
           id="g5799">
          <g
             id="g5842"
             transform="matrix(0.96982836,0,0,0.96982836,-16.824018,-42.345584)"
             inkscape:export-xdpi="299.9938"
             inkscape:export-ydpi="299.9938">
            <g
               style="fill:#fff120;fill-opacity:1"
               id="g5787"
               transform="matrix(0.16998838,0,0,0.17923471,-512.72224,113.7354)"
               inkscape:export-xdpi="500.09"
               inkscape:export-ydpi="500.09">
              <g
                 style="fill:#fff120;fill-opacity:1"
                 id="g5821">
                <rect
                   style="fill:#fff120;fill-opacity:1;stroke:#000027;stroke-width:0.00212139;stroke-miterlimit:4;stroke-dasharray:none;stroke-opacity:0"
                   id="rect5852"
                   width="350.59326"
                   height="350.59326"
                   x="-403.60312"
                   y="199.47014" />
                <path
                   style="fill:#1a1a1a;fill-opacity:1"
                   d="m -213.36609,519.326 c -1.74222,0.46666 -12.71956,0.32216 -13.85755,-0.18242 -0.53604,-0.23768 -1.53034,-1.14515 -2.20954,-2.0166 -1.05181,-1.34952 -1.24206,-2.47358 -1.28311,-7.58089 -0.0265,-3.29805 -0.68978,-38.26522 -1.47393,-77.70484 -1.13065,-56.86716 -1.62532,-72.27374 -2.39012,-74.43999 -1.03687,-2.93689 -3.57742,-6.63713 -3.92099,-5.71082 -0.11254,0.30343 -0.18427,5.4352 -0.15939,11.40394 0.0249,5.96874 -0.15236,11.79314 -0.39385,12.94313 -1.56511,7.45297 -8.2262,12.11205 -14.36682,10.04885 -3.52915,-1.18577 -6.95194,-5.23391 -7.936,-9.38591 -0.62107,-2.6204 -1.12383,-37.5778 -0.55416,-38.53074 0.12063,-0.20179 5.5296,-0.3765 12.01994,-0.38825 6.49033,-0.0117 12.43564,-0.13676 13.21179,-0.2778 1.88375,-0.34231 3.51833,-1.6718 4.52966,-3.68421 1.05026,-2.08991 1.06361,-8.76765 0.0235,-11.7684 -0.73271,-2.11394 -0.92647,-2.34694 -2.54389,-3.05907 -1.44468,-0.63607 -10.14744,-0.86086 -27.20478,-0.70269 -0.12636,0.001 -0.26573,-0.82876 -0.3097,-1.8443 -0.0439,-1.01554 -0.42602,-2.29044 -0.84899,-2.83313 -1.30733,-1.67738 -2.39985,-8.79854 -1.95717,-12.75714 0.23125,-2.06801 0.97908,-4.94744 1.66182,-6.39873 1.05035,-2.23267 1.23447,-4.14825 1.19656,-12.44854 -0.0992,-21.72839 0.21621,-24.63875 3.37324,-31.12051 2.66721,-5.47612 5.17022,-8.50044 10.45572,-12.6334 8.85707,-6.92572 18.85865,-9.50661 30.37832,-7.83901 10.58367,1.53211 19.30537,6.62543 25.05243,14.6302 l 2.27982,3.17543 -18.60949,0.92783 c -10.23523,0.51031 -19.59059,1.15731 -20.78971,1.4378 -3.72416,0.87111 -6.39712,3.68953 -7.02154,7.40364 -0.17924,1.06616 -0.0847,5.90889 0.21007,10.76161 l 0.53596,8.82312 12.87515,2.63464 c 7.08134,1.44906 16.71331,3.41307 21.4044,4.36448 8.89567,1.80415 10.33921,2.526 9.39818,4.69956 -0.84895,1.96083 -4.41653,4.463 -6.44344,4.51921 -0.96638,0.0268 -2.4958,0.45511 -3.39873,0.95184 l -1.64168,0.90313 -1.40647,53.06356 c -1.91863,72.38635 -2.64793,102.53158 -3.30931,136.7883 -0.30962,16.03705 -0.65752,29.58926 -0.77312,30.11602 -0.28624,1.30439 -2.35516,3.32326 -3.8031,3.7111 z m -3.26525,-14.22912 c 0.002,-3.90258 -0.0701,-7.2833 -0.16095,-7.5127 -0.1824,-0.46053 -5.72755,-0.78259 -6.26479,-0.36386 -0.42333,0.32994 -0.4926,14.2263 -0.0736,14.7639 0.22768,0.29212 5.91148,0.51097 6.42005,0.2472 0.0413,-0.0214 0.077,-3.23195 0.0793,-7.13454 z m -23.53734,-199.70939 c 1.1241,-4.27472 -0.38839,-7.85704 -4.20218,-9.95288 -8.8958,-4.88859 -17.43239,6.94698 -10.06212,13.95063 1.90808,1.81316 5.48308,2.74592 8.10748,2.11534 2.57726,-0.61924 5.46651,-3.48797 6.15682,-6.11309 z m -1.39137,30.54549 c -10.10437,0.13281 -20.3615,-0.0915 -21.2008,-0.46366 -2.14548,-0.95131 -3.1296,-3.0849 -3.2377,-7.01944 -0.1211,-4.40825 0.22687,-5.44166 2.4036,-7.13819 1.4241,-1.10993 2.75064,-1.23563 13.22119,-1.25276 9.54954,-0.0156 11.89112,0.16896 13.04709,1.02846 2.07596,1.54352 2.58337,2.92762 2.56951,7.00907 -0.0193,5.69581 -1.82085,7.77104 -6.80289,7.83652 z"
                   id="path4197"
                   inkscape:connector-curvature="0" />
              </g>
            </g>
            <g
               id="g5856"
               transform="matrix(1.3293969,0,0,0.97009596,143.91369,85.167077)"
               inkscape:export-xdpi="500.09274"
               inkscape:export-ydpi="500.09274">
              <rect
                 style="fill:#1a1a1a;fill-opacity:1;stroke:#000027;stroke-width:0.00216841;stroke-miterlimit:4;stroke-dasharray:none;stroke-opacity:0"
                 id="rect5866"
                 width="124.26434"
                 height="64.773323"
                 x="-500.54288"
                 y="66.304131"
                 inkscape:export-xdpi="500.09"
                 inkscape:export-ydpi="500.09" />
              <text
                 transform="scale(0.89642017,1.1155483)"
                 xml:space="preserve"
                 style="font-style:normal;font-weight:normal;font-size:14.9896183px;line-height:125%;font-family:Sans;letter-spacing:0.3260242px;word-spacing:0px;fill:#fff120;fill-opacity:1;stroke:none;stroke-width:1px;stroke-linecap:butt;stroke-linejoin:miter;stroke-opacity:1"
                 x="-554.37524"
                 y="111.42783"
                 id="text5795"
                 sodipodi:linespacing="125%"
                 inkscape:export-xdpi="500.09"
                 inkscape:export-ydpi="500.09"><tspan
                   sodipodi:role="line"
                   id="tspan5797"
                   x="-554.37524"
                   y="111.42783"
                   style="font-style:normal;font-variant:normal;font-weight:normal;font-stretch:normal;font-size:11.2422142px;font-family:sans-serif;-inkscape-font-specification:sans-serif;letter-spacing:0.3260242px;fill:#fff120;fill-opacity:1">Just Right Restoration</tspan></text>
              <text
                 transform="scale(0.87093553,1.1481906)"
                 xml:space="preserve"
                 style="font-style:normal;font-weight:normal;font-size:26.61094856px;line-height:125%;font-family:Sans;letter-spacing:0px;word-spacing:0px;fill:#fff120;fill-opacity:1;stroke:#000027;stroke-width:0.00034908;stroke-linecap:butt;stroke-linejoin:miter;stroke-miterlimit:4;stroke-dasharray:none;stroke-opacity:0"
                 x="-574.67926"
                 y="88.406586"
                 id="text5791"
                 sodipodi:linespacing="125%"
                 inkscape:export-xdpi="500.09"
                 inkscape:export-ydpi="500.09"><tspan
                   sodipodi:role="line"
                   id="tspan5793"
                   x="-574.67926"
                   y="88.406586"
                   style="font-style:normal;font-variant:normal;font-weight:bold;font-stretch:normal;font-size:39.91639709px;font-family:sans-serif;-inkscape-font-specification:'sans-serif Bold';fill:#fff120;fill-opacity:1;stroke:#000027;stroke-width:0.00034908;stroke-miterlimit:4;stroke-dasharray:none;stroke-opacity:0">replad</tspan></text>
            </g>
          </g>
          <text
             sodipodi:linespacing="125%"
             id="text5817"
             y="373.21768"
             x="-188.78453"
             style="font-style:normal;font-weight:normal;font-size:36.21794128px;line-height:125%;font-family:Sans;letter-spacing:0px;word-spacing:0px;fill:#1a1a1a;fill-opacity:1;stroke:none;stroke-width:1px;stroke-linecap:butt;stroke-linejoin:miter;stroke-opacity:1"
             xml:space="preserve"><tspan
               y="373.21768"
               x="-188.78453"
               id="tspan5819"
               sodipodi:role="line"></tspan></text>
        </g>
      </g>
    </g>
  </g>
</svg>
